# xmcd CD database file
#
# Track frame offsets:
#	150
#	11488
#	26844
#	38929
#	53284
#	66990
#	78923
#	89430
#	99235
#	116428
#
# Disc length: 1729 seconds
#
# Revision: 0
# Processed by: cddbd v1.5.1PL0 Copyright (c) Steve Scherf et al.
# Submitted via: CDex 1.40Beta8
#
DISCID=7006bf0a
DTITLE=Conway Twitty - It's Only Make Believe
DYEAR=2005
DGENRE=Country
TTITLE0=It's Only Make Believe
TTITLE1=(Lost Her Love) On Our Last Date
TTITLE2=She Needs Someone to Hold Her (When She cries)
TTITLE3=You've Never Been This Far Before
TTITLE4=The Games that Daddies Play
TTITLE5=I'm Not Through Loving You Yet
TTITLE6=(I can't Believe) She Gives it All to Me
TTITLE7=I'll Try
TTITLE8=Don't Cry Joni
TTITLE9=After all the Good is Gone
EXTD=YEAR: 2005 ID3G: 2
EXTT0=
EXTT1=
EXTT2=
EXTT3=
EXTT4=
EXTT5=
EXTT6=
EXTT7=
EXTT8=
EXTT9=
PLAYORDER=
